<svg xmlns="http://www.w3.org/2000/svg" viewBox="0 0 16 16" fill="currentColor">
    <path
    d="M4.18 11.82C6.62 14.26 8.64 15 10.79 15a3.76 3.76 0 002.66-1.1l1.32-1.32a.8.8 0 000-1.13L11.6 8.29a1 1 0 00-.69-.29 1 1 0 00-.42.09l-1.67.73-1.64-1.64.73-1.67A1 1 0 008 5.09a1 1 0 00-.29-.69L4.55 1.23a.8.8 0 00-1.13 0L2.1 2.55A3.76 3.76 0 001 5.21c0 2.15.74 4.17 3.18 6.61zm1.24-1.24c-2.34-2.34-2.67-4-2.67-5.37a2 2 0 01.59-1.42L4 3.14l2 2-1 2.32L8.54 11l2.29-1 2 2-.65.65a2 2 0 01-1.42.59c-1.38.01-3-.31-5.34-2.66z"
  />
</svg>
